<svg width="20" height="17" viewBox="0 0 20 17" fill="none" xmlns="http://www.w3.org/2000/svg">
<path d="M13.1133 8.50454C13.1133 10.2991 11.6631 11.7493 9.86857 11.7493C8.07401 11.7493 6.6239 10.2991 6.6239 8.50454C6.6239 6.70998 8.07401 5.25987 9.86857 5.25987C11.6631 5.25987 13.1133 6.70998 13.1133 8.50454Z" stroke="#EAEAEA" stroke-width="1.2" stroke-linecap="round" stroke-linejoin="round"/>
<path d="M9.86859 16C13.068 16 16.0499 14.1148 18.1254 10.852C18.9411 9.57403 18.9411 7.426 18.1254 6.14803C16.0499 2.88519 13.068 1 9.86859 1C6.66917 1 3.68731 2.88519 1.61178 6.14803C0.796073 7.426 0.796073 9.57403 1.61178 10.852C3.68731 14.1148 6.66917 16 9.86859 16Z" stroke="#EAEAEA" stroke-width="1.2" stroke-linecap="round" stroke-linejoin="round"/>
</svg>
